<?xml version="1.0" encoding="utf-8"?>
<!-- Generator: Adobe Illustrator 16.0.0, SVG Export Plug-In . SVG Version: 6.00 Build 0)  -->
<!DOCTYPE svg PUBLIC "-//W3C//DTD SVG 1.1//EN" "http://www.w3.org/Graphics/SVG/1.1/DTD/svg11.dtd">
<svg version="1.1" id="Layer_1" xmlns="http://www.w3.org/2000/svg" xmlns:xlink="http://www.w3.org/1999/xlink" x="0px" y="0px"
	 width="283.5px" height="56.693px" viewBox="0 0 283.5 56.693" enable-background="new 0 0 283.5 56.693" xml:space="preserve">
<g>
	<g>
		<rect x="264.385" y="12.2" fill="#4B318C" width="10.796" height="10.798"/>
	</g>
	<g>
		<path fill="#565A6C" d="M28.075,29.854c-1.728-1.399-4.252-2.59-7.509-3.539c-2.996-0.841-5.104-1.746-6.262-2.694
			c-1.107-0.904-1.645-2.024-1.645-3.426c0-1.488,0.602-2.712,1.837-3.742c1.245-1.041,3.012-1.567,5.247-1.567
			c2.158,0,3.938,0.625,5.292,1.856c1.359,1.233,2.02,2.747,2.02,4.622v0.498h3.196l0.112-0.339l0.068-0.273
			c0.059-2.744-0.918-5.038-2.9-6.823c-1.965-1.769-4.585-2.665-7.789-2.665c-3.038,0-5.582,0.791-7.556,2.351
			c-2.01,1.591-3.03,3.649-3.03,6.125c0,2.433,0.919,4.389,2.728,5.811c1.738,1.365,4.288,2.516,7.568,3.417
			c2.89,0.868,4.952,1.8,6.135,2.769c1.127,0.925,1.676,2.063,1.676,3.479c0,1.529-0.651,2.748-1.988,3.721
			c-1.367,0.998-3.181,1.503-5.388,1.503c-2.16,0-4.107-0.552-5.785-1.643c-1.633-1.06-2.425-2.641-2.425-4.834v-0.497H8.503
			L8.39,34.301l-0.067,0.272c-0.074,3.089,1.087,5.477,3.454,7.094c2.303,1.576,5.032,2.374,8.112,2.374
			c3.087,0,5.691-0.76,7.74-2.258c2.096-1.534,3.159-3.59,3.159-6.113C30.786,33.266,29.875,31.311,28.075,29.854z"/>
		<path fill="#565A6C" d="M52.816,11.761c-3.698,0-6.691,1.286-8.896,3.825c-2.188,2.519-3.297,5.833-3.297,9.851v4.949
			c0,4.032,1.112,7.347,3.309,9.85c2.21,2.524,5.206,3.805,8.905,3.805c3.753,0,6.792-1.279,9.028-3.802
			c2.226-2.502,3.354-5.818,3.354-9.852v-4.949c0-4.02-1.131-7.335-3.363-9.854C59.608,13.047,56.567,11.761,52.816,11.761z
			 M61.737,25.395v4.992c0,3.195-0.794,5.774-2.361,7.671c-1.564,1.896-3.703,2.816-6.539,2.816c-2.764,0-4.854-0.921-6.39-2.823
			c-1.541-1.904-2.322-4.484-2.322-7.664v-4.992c0-3.154,0.777-5.719,2.312-7.624c1.53-1.898,3.616-2.82,6.379-2.82
			c2.822,0,4.961,0.924,6.54,2.825C60.937,19.68,61.737,22.244,61.737,25.395z"/>
		<path fill="#565A6C" d="M120.991,11.761c-3.699,0-6.691,1.286-8.896,3.825c-2.188,2.519-3.297,5.833-3.297,9.851v4.949
			c0,4.032,1.113,7.347,3.309,9.85c2.211,2.524,5.207,3.805,8.904,3.805c3.753,0,6.791-1.279,9.029-3.802
			c2.225-2.502,3.354-5.818,3.354-9.852v-4.949c0-4.02-1.132-7.335-3.363-9.854C127.783,13.047,124.742,11.761,120.991,11.761z
			 M129.911,25.395v4.992c0,3.195-0.794,5.774-2.36,7.671c-1.565,1.896-3.705,2.816-6.541,2.816c-2.763,0-4.854-0.921-6.389-2.823
			c-1.541-1.904-2.322-4.484-2.322-7.664v-4.992c0-3.154,0.777-5.719,2.312-7.624c1.53-1.898,3.617-2.82,6.379-2.82
			c2.821,0,4.96,0.924,6.54,2.825C129.111,19.68,129.911,22.244,129.911,25.395z"/>
		<path fill="#565A6C" d="M98.49,22.676l0.112-0.343l0.066-0.271c0.057-3.188-0.973-5.733-3.062-7.567
			c-2.068-1.813-4.846-2.734-8.254-2.734c-3.522,0-6.404,1.299-8.566,3.863c-2.143,2.537-3.229,5.838-3.229,9.812v4.949
			c0,3.988,1.087,7.29,3.23,9.812c2.163,2.55,5.045,3.842,8.566,3.842c3.369,0,6.136-0.942,8.225-2.799
			c2.108-1.874,3.148-4.404,3.091-7.524l-0.178-0.614h-3.198v0.498c0,2.389-0.7,4.224-2.079,5.456
			c-1.396,1.246-3.367,1.878-5.861,1.878c-2.521,0-4.487-0.945-6.009-2.889c-1.531-1.956-2.307-4.532-2.307-7.661v-4.992
			c0-3.086,0.776-5.647,2.308-7.608c1.522-1.952,3.488-2.901,6.008-2.901c2.491,0,4.461,0.649,5.855,1.927
			c1.382,1.267,2.084,3.072,2.084,5.366v0.498H98.49z"/>
		<polygon fill="#565A6C" points="154.319,37.644 154.127,38.312 153.929,37.609 144.682,12.2 140.903,12.2 152.593,43.603 
			155.666,43.603 167.355,12.2 163.596,12.2 		"/>
		<polygon fill="#565A6C" points="180.119,28.879 193.757,28.879 193.757,25.753 180.119,25.753 180.119,15.324 195.783,15.324 
			195.783,12.2 176.62,12.2 176.62,43.603 195.888,43.603 195.888,40.498 180.119,40.498 		"/>
		<path fill="#565A6C" d="M224.143,29.854c-1.728-1.399-4.252-2.59-7.511-3.539c-2.996-0.841-5.102-1.746-6.261-2.694
			c-1.107-0.904-1.646-2.024-1.646-3.426c0-1.488,0.602-2.712,1.837-3.742c1.246-1.041,3.011-1.567,5.247-1.567
			c2.157,0,3.938,0.625,5.293,1.856c1.358,1.233,2.019,2.747,2.019,4.622v0.498h3.195l0.114-0.339l0.067-0.273
			c0.058-2.744-0.919-5.038-2.899-6.823c-1.965-1.769-4.586-2.665-7.789-2.665c-3.04,0-5.581,0.791-7.556,2.351
			c-2.011,1.591-3.031,3.649-3.031,6.125c0,2.433,0.919,4.389,2.729,5.811c1.737,1.366,4.288,2.516,7.566,3.417
			c2.89,0.868,4.951,1.8,6.137,2.769c1.127,0.925,1.677,2.063,1.677,3.479c0,1.529-0.652,2.748-1.99,3.721
			c-1.366,0.998-3.18,1.503-5.388,1.503c-2.161,0-4.107-0.552-5.785-1.643c-1.632-1.06-2.424-2.641-2.424-4.834v-0.497h-3.174
			l-0.115,0.339l-0.067,0.272c-0.073,3.089,1.087,5.477,3.453,7.094c2.304,1.576,5.034,2.374,8.112,2.374
			c3.088,0,5.692-0.76,7.74-2.258c2.095-1.533,3.156-3.59,3.156-6.113C226.851,33.268,225.94,31.311,224.143,29.854z"/>
		<polygon fill="#565A6C" points="249.392,12.527 249.275,12.2 246.218,12.2 234.68,43.603 238.331,43.603 247.753,17.563 
			257.076,43.603 260.727,43.603 		"/>
	</g>
</g>
</svg>
